<svg width="140" height="42" viewBox="0 0 140 42" fill="none" xmlns="http://www.w3.org/2000/svg">
    <path fill-rule="evenodd" clip-rule="evenodd"
        d="M53.7544 20.5001C53.237 20.5001 52.9414 20.7653 52.9414 21.356V21.6663H54.7591V23.4973H52.9709V29.492H50.7251V23.4973H49.7947V21.6512H50.7251V21.1498C50.7251 19.4068 51.5966 18.6101 53.1778 18.6101C53.8871 18.6101 54.3597 18.6981 54.7735 18.8314V20.6917C54.4486 20.5737 54.138 20.5001 53.7544 20.5001Z"
        fill="currentColor" />
    <mask id="mask0_214_521" style="mask-type:luminance" maskUnits="userSpaceOnUse" x="30" y="5" width="80" height="32">
        <path d="M30.4104 37H109.59V5H30.4104V37Z" fill="white" />
    </mask>
    <g mask="url(#mask0_214_521)">
        <path fill-rule="evenodd" clip-rule="evenodd"
            d="M56.2341 29.4921H58.4798V21.5777H56.2341V29.4921ZM56.175 20.7062H58.539V18.7131H56.175V20.7062Z"
            fill="currentColor" />
    </g>
    <mask id="mask1_214_521" style="mask-type:luminance" maskUnits="userSpaceOnUse" x="30" y="5" width="80" height="32">
        <path d="M30.4104 37H109.59V5H30.4104V37Z" fill="white" />
    </mask>
    <g mask="url(#mask1_214_521)">
        <path fill-rule="evenodd" clip-rule="evenodd"
            d="M65.7481 29.492V25.0768C65.7481 24.0137 65.2463 23.4676 64.3889 23.4676C63.5325 23.4676 62.9856 24.0137 62.9856 25.0768V29.492H60.7397V21.5777H62.9856V22.6999C63.5023 22.0357 64.1675 21.4301 65.3054 21.4301C67.0042 21.4301 67.9938 22.5522 67.9938 24.3681V29.492H65.7481Z"
            fill="currentColor" />
    </g>
    <mask id="mask2_214_521" style="mask-type:luminance" maskUnits="userSpaceOnUse" x="30" y="5" width="80" height="32">
        <path d="M30.4104 37H109.59V5H30.4104V37Z" fill="white" />
    </mask>
    <g mask="url(#mask2_214_521)">
        <path fill-rule="evenodd" clip-rule="evenodd"
            d="M76.162 25.5204C76.162 24.206 75.2754 23.3352 74.2267 23.3352C73.178 23.3352 72.306 24.206 72.306 25.5204V25.5494C72.306 26.8638 73.178 27.7346 74.2267 27.7346C75.2754 27.7346 76.162 26.8789 76.162 25.5494V25.5204ZM74.8028 29.6397C73.6061 29.6397 72.8675 29.0932 72.3357 28.4586V29.492H70.0898V18.7132H72.3357V22.7143C72.8824 21.9768 73.6358 21.4301 74.8028 21.4301C76.6497 21.4301 78.4077 22.8771 78.4077 25.5204V25.5494C78.4077 28.1927 76.6794 29.6397 74.8028 29.6397Z"
            fill="currentColor" />
    </g>
    <mask id="mask3_214_521" style="mask-type:luminance" maskUnits="userSpaceOnUse" x="30" y="5" width="80" height="32">
        <path d="M30.4104 37H109.59V5H30.4104V37Z" fill="white" />
    </mask>
    <g mask="url(#mask3_214_521)">
        <path fill-rule="evenodd" clip-rule="evenodd"
            d="M83.7387 23.2314C82.8081 23.2314 82.202 23.8957 82.0249 24.9147H85.4085C85.2753 23.9108 84.6842 23.2314 83.7387 23.2314ZM87.5655 26.3171H82.0551C82.2763 27.3363 82.9855 27.8678 83.9902 27.8678C84.7434 27.8678 85.2903 27.6315 85.9109 27.056L87.1966 28.1927C86.4573 29.1081 85.3935 29.6692 83.9607 29.6692C81.5821 29.6692 79.8235 28.0009 79.8235 25.5794V25.5493C79.8235 23.2904 81.4337 21.4301 83.7387 21.4301C86.3837 21.4301 87.5952 23.4822 87.5952 25.7265V25.7566C87.5952 25.9778 87.5801 26.1111 87.5655 26.3171Z"
            fill="currentColor" />
    </g>
    <mask id="mask4_214_521" style="mask-type:luminance" maskUnits="userSpaceOnUse" x="30" y="5" width="80" height="32">
        <path d="M30.4104 37H109.59V5H30.4104V37Z" fill="white" />
    </mask>
    <g mask="url(#mask4_214_521)">
        <path fill-rule="evenodd" clip-rule="evenodd"
            d="M94.0645 23.7775C92.5726 23.7775 91.6565 24.6784 91.6565 26.5684V29.492H89.4106V21.5776H91.6565V23.1724C92.1143 22.0798 92.8535 21.3709 94.1828 21.4301V23.7775H94.0645Z"
            fill="currentColor" />
    </g>
    <mask id="mask5_214_521" style="mask-type:luminance" maskUnits="userSpaceOnUse" x="30" y="5" width="80" height="32">
        <path d="M30.4104 37H109.59V5H30.4104V37Z" fill="white" />
    </mask>
    <g mask="url(#mask5_214_521)">
        <path fill-rule="evenodd" clip-rule="evenodd"
            d="M100.387 23.7775C98.8945 23.7775 97.9783 24.6784 97.9783 26.5684V29.492H95.7327V21.5776H97.9783V23.1724C98.4368 22.0798 99.175 21.3709 100.505 21.4301V23.7775H100.387Z"
            fill="currentColor" />
    </g>
    <mask id="mask6_214_521" style="mask-type:luminance" maskUnits="userSpaceOnUse" x="30" y="5" width="80" height="32">
        <path d="M30.4104 37H109.59V5H30.4104V37Z" fill="white" />
    </mask>
    <g mask="url(#mask6_214_521)">
        <path fill-rule="evenodd" clip-rule="evenodd"
            d="M106.546 29.6837C105.94 31.2934 105.29 31.8991 103.946 31.8991C103.133 31.8991 102.527 31.6918 101.952 31.3524L102.705 29.7283C103 29.9054 103.37 30.0382 103.665 30.0382C104.049 30.0382 104.256 29.92 104.448 29.5216L101.345 21.5777H103.724L105.527 26.9669L107.255 21.5777H109.59L106.546 29.6837Z"
            fill="currentColor" />
    </g>
    <mask id="mask7_214_521" style="mask-type:luminance" maskUnits="userSpaceOnUse" x="30" y="5" width="80" height="32">
        <path d="M30.4104 37H109.59V5H30.4104V37Z" fill="white" />
    </mask>
    <g mask="url(#mask7_214_521)">
        <path fill-rule="evenodd" clip-rule="evenodd"
            d="M44.1069 35.3599C42.1928 35.3599 40.6356 33.8037 40.6356 31.8907C40.6356 29.9778 42.1928 28.4216 44.1069 28.4216C46.021 28.4216 47.5783 29.9778 47.5783 31.8907C47.5783 33.8037 46.021 35.3599 44.1069 35.3599ZM35.523 28.065C33.6089 28.065 32.0517 26.5087 32.0517 24.5958C32.0517 22.6828 33.6089 21.1267 35.523 21.1267C37.4373 21.1267 38.9944 22.6828 38.9944 24.5958C38.9944 26.5087 37.4373 28.065 35.523 28.065ZM38.9718 12.0297C37.4412 12.3801 35.8123 11.9804 34.6223 10.9347C33.4325 9.88919 32.8252 8.32677 32.9751 6.76236C34.5055 6.41391 36.1325 6.81359 37.3243 7.85929C38.5163 8.90499 39.1236 10.4672 38.9718 12.0297ZM44.2239 13.2741C46.1379 13.2741 47.6952 14.8302 47.6952 16.7433C47.6952 18.6561 46.1379 20.2123 44.2239 20.2123C42.3096 20.2123 40.7525 18.6561 40.7525 16.7433C40.7525 14.8302 42.3096 13.2741 44.2239 13.2741ZM44.1069 26.7814C42.7673 26.7814 41.5486 27.3001 40.6356 28.1449V20.3764C41.5588 21.2886 42.8267 21.8526 44.2239 21.8526C47.0426 21.8526 49.3362 19.5603 49.3362 16.7433C49.3362 13.9261 47.0426 11.6338 44.2239 11.6338C42.8267 11.6338 41.5588 12.1978 40.6356 13.11V12.2757H40.5924C40.6211 12.0358 40.6356 11.7958 40.6356 11.556C40.6356 9.69225 39.8375 7.88183 38.4096 6.62709C36.6576 5.08937 34.1935 4.59736 31.98 5.34152L31.5287 5.4932L31.4363 5.95869C30.9808 8.24886 31.7871 10.6272 33.5391 12.1669C34.7497 13.229 36.3005 13.7928 37.872 13.7928C38.2476 13.7928 38.623 13.76 38.9944 13.6965V20.85C38.0814 20.0052 36.8627 19.4865 35.523 19.4865C32.7042 19.4865 30.4106 21.7787 30.4106 24.5958C30.4106 27.413 32.7042 29.7051 35.523 29.7051C36.8627 29.7051 38.0814 29.1864 38.9944 28.3416V31.8907C38.9944 31.9358 38.9944 31.983 38.9983 32.0281C39.0703 34.7816 41.3331 37 44.1069 37C46.9257 37 49.2195 34.7079 49.2195 31.8907C49.2195 29.0737 46.9257 26.7814 44.1069 26.7814Z"
            fill="currentColor" />
    </g>
    <path
        d="M56.5622 33.5152V34.565C56.5622 34.6762 56.59 34.7538 56.6457 34.7979C56.7013 34.8419 56.7744 34.8639 56.8648 34.8639C56.9112 34.8639 56.9547 34.8593 56.9953 34.85C57.0358 34.8407 57.0793 34.8245 57.1257 34.8013V35.0308C57.0793 35.0563 57.03 35.0754 56.9779 35.0881C56.9257 35.1009 56.8671 35.1072 56.8022 35.1072C56.7303 35.1072 56.6631 35.098 56.6005 35.0794C56.5379 35.0609 56.484 35.0313 56.4387 34.9908C56.3935 34.9502 56.3582 34.8975 56.3326 34.8326C56.3071 34.7677 56.2944 34.6901 56.2944 34.5997V33.5152H56.0439V33.2788H56.2944V32.7365H56.5622V33.2788H57.1327V33.5152H56.5622ZM58.8905 34.3077V33.2788H59.1549V35.076H58.8905V34.7631C58.8302 34.8604 58.7514 34.9433 58.654 35.0116C58.5566 35.08 58.4302 35.1142 58.2749 35.1142C58.1659 35.1142 58.0691 35.0968 57.9844 35.0621C57.8998 35.0273 57.8279 34.978 57.7688 34.9143C57.7097 34.8506 57.6644 34.7747 57.6331 34.6866C57.6018 34.5986 57.5862 34.5012 57.5862 34.3946V33.2788H57.854V34.3286C57.854 34.4954 57.8969 34.6275 57.9827 34.7249C58.0685 34.8222 58.1914 34.8709 58.3514 34.8709C58.4279 34.8709 58.4992 34.8575 58.5653 34.8309C58.6314 34.8042 58.6882 34.766 58.7358 34.7162C58.7833 34.6664 58.821 34.6067 58.8488 34.5372C58.8766 34.4676 58.8905 34.3912 58.8905 34.3077ZM62.3611 34.7701C62.2707 34.872 62.168 34.9555 62.0533 35.0203C61.9385 35.0852 61.7964 35.1177 61.6272 35.1177C61.495 35.1177 61.3727 35.0928 61.2602 35.0429C61.1477 34.9931 61.0503 34.9259 60.968 34.8413C60.8857 34.7567 60.8214 34.6577 60.775 34.5441C60.7286 34.4306 60.7054 34.3101 60.7054 34.1826C60.7054 34.0551 60.7286 33.9341 60.775 33.8193C60.8214 33.7046 60.8857 33.6044 60.968 33.5187C61.0503 33.4329 61.1477 33.3651 61.2602 33.3153C61.3727 33.2655 61.495 33.2406 61.6272 33.2406C61.713 33.2406 61.7906 33.2487 61.8602 33.2649C61.9298 33.2811 61.9935 33.3037 62.0515 33.3327C62.1095 33.3617 62.1628 33.3958 62.2115 33.4352C62.2602 33.4746 62.3054 33.5163 62.3472 33.5604L62.1698 33.7481C62.0979 33.6739 62.0196 33.6102 61.935 33.5569C61.8504 33.5036 61.7466 33.4769 61.6237 33.4769C61.5332 33.4769 61.4486 33.4949 61.3698 33.5308C61.2909 33.5667 61.2225 33.6166 61.1645 33.6803C61.1066 33.744 61.0614 33.8182 61.0289 33.9028C60.9964 33.9874 60.9802 34.0783 60.9802 34.1756C60.9802 34.273 60.997 34.3645 61.0306 34.4503C61.0643 34.536 61.1106 34.6107 61.1698 34.6745C61.2289 34.7382 61.2985 34.788 61.3785 34.8239C61.4585 34.8599 61.546 34.8778 61.6411 34.8778C61.757 34.8778 61.8596 34.8523 61.9489 34.8013C62.0382 34.7504 62.1188 34.6866 62.1906 34.6102L62.3611 34.7701ZM63.079 34.3599V35.076H62.8111V33.2788H63.079V33.7481C63.1114 33.6739 63.152 33.6056 63.2007 33.543C63.2494 33.4804 63.305 33.4265 63.3677 33.3813C63.4303 33.3362 63.4987 33.302 63.5729 33.2788C63.6471 33.2556 63.7271 33.2452 63.8129 33.2475V33.536H63.792C63.6946 33.536 63.6024 33.5534 63.5155 33.5882C63.4285 33.6229 63.3526 33.6751 63.2877 33.7446C63.2227 33.8141 63.1717 33.9004 63.1346 34.0036C63.0975 34.1067 63.079 34.2255 63.079 34.3599ZM64.3881 34.2765C64.3974 34.3738 64.4206 34.4601 64.4577 34.5354C64.4948 34.6107 64.5423 34.6745 64.6003 34.7266C64.6583 34.7787 64.7232 34.8181 64.7951 34.8448C64.867 34.8714 64.9423 34.8848 65.0212 34.8848C65.1464 34.8848 65.2537 34.8616 65.3429 34.8152C65.4322 34.7689 65.5139 34.7075 65.5882 34.631L65.7551 34.7805C65.6647 34.8825 65.5615 34.9641 65.4455 35.0256C65.3296 35.087 65.1858 35.1177 65.0142 35.1177C64.8913 35.1177 64.7754 35.0951 64.6664 35.0499C64.5574 35.0047 64.4623 34.941 64.3812 34.8587C64.3 34.7764 64.2357 34.6774 64.1881 34.5615C64.1406 34.4456 64.1168 34.3182 64.1168 34.1791C64.1168 34.0493 64.1383 33.9271 64.1812 33.8124C64.2241 33.6977 64.2838 33.598 64.3603 33.5134C64.4368 33.4289 64.5278 33.3622 64.6334 33.3136C64.7389 33.2649 64.8542 33.2406 64.9794 33.2406C65.1116 33.2406 65.2299 33.2655 65.3342 33.3153C65.4386 33.3651 65.5267 33.4329 65.5986 33.5187C65.6705 33.6044 65.725 33.7052 65.7621 33.8211C65.7992 33.9369 65.8177 34.0609 65.8177 34.193V34.2313C65.8177 34.2452 65.8166 34.2602 65.8142 34.2765H64.3881ZM64.3881 34.0783H65.5464C65.5395 33.9972 65.5226 33.9196 65.496 33.8454C65.4693 33.7713 65.4322 33.7064 65.3847 33.6507C65.3371 33.5951 65.2792 33.5505 65.2108 33.5169C65.1423 33.4833 65.0629 33.4665 64.9725 33.4665C64.8936 33.4665 64.8206 33.4822 64.7534 33.5134C64.6861 33.5447 64.627 33.5876 64.576 33.6421C64.525 33.6965 64.4832 33.7608 64.4507 33.835C64.4183 33.9091 64.3974 33.9902 64.3881 34.0783ZM65.0281 33.0077H64.8125L65.1429 32.5036L65.4212 32.6322L65.0281 33.0077ZM68.0069 35.076H67.7391V34.7144C67.702 34.7677 67.6608 34.8187 67.6156 34.8674C67.5704 34.9161 67.52 34.9589 67.4643 34.996C67.4086 35.0331 67.3466 35.0621 67.2782 35.0829C67.2098 35.1038 67.1339 35.1142 67.0504 35.1142C66.9414 35.1142 66.8359 35.0933 66.7339 35.0516C66.6318 35.0099 66.5402 34.9491 66.4591 34.8691C66.3779 34.7892 66.313 34.6913 66.2643 34.5754C66.2156 34.4595 66.1912 34.3274 66.1912 34.1791C66.1912 34.0308 66.2156 33.8987 66.2643 33.7828C66.313 33.667 66.3779 33.5691 66.4591 33.4891C66.5402 33.4092 66.6318 33.3477 66.7339 33.3049C66.8359 33.262 66.9414 33.2406 67.0504 33.2406C67.1339 33.2406 67.2104 33.251 67.2799 33.2719C67.3495 33.2927 67.4121 33.3205 67.4678 33.3553C67.5234 33.39 67.5739 33.4306 67.6191 33.4769C67.6643 33.5233 67.7043 33.572 67.7391 33.6229V32.5384H68.0069V35.076ZM67.7495 34.1756C67.7495 34.0714 67.7315 33.9763 67.6956 33.8906C67.6597 33.8049 67.611 33.7319 67.5495 33.6716C67.4881 33.6114 67.4185 33.5644 67.3408 33.5308C67.2631 33.4972 67.1826 33.4804 67.0991 33.4804C67.011 33.4804 66.9286 33.4961 66.8521 33.5273C66.7756 33.5586 66.7089 33.6038 66.6521 33.6629C66.5953 33.722 66.5501 33.795 66.5165 33.8819C66.4828 33.9688 66.466 34.0667 66.466 34.1756C66.466 34.2822 66.4828 34.3784 66.5165 34.4642C66.5501 34.5499 66.5959 34.6235 66.6539 34.6849C66.7118 34.7463 66.7791 34.7932 66.8556 34.8257C66.9321 34.8581 67.0133 34.8743 67.0991 34.8743C67.1826 34.8743 67.2631 34.8575 67.3408 34.8239C67.4185 34.7903 67.4881 34.7434 67.5495 34.6832C67.611 34.6229 67.6597 34.5493 67.6956 34.4624C67.7315 34.3755 67.7495 34.2799 67.7495 34.1756ZM68.9265 32.886H68.6204V32.5905H68.9265V32.886ZM68.9057 35.076H68.6378V33.2788H68.9057V35.076ZM69.8983 33.5152V34.565C69.8983 34.6762 69.9261 34.7538 69.9818 34.7979C70.0374 34.8419 70.1105 34.8639 70.2009 34.8639C70.2473 34.8639 70.2908 34.8593 70.3314 34.85C70.3719 34.8407 70.4154 34.8245 70.4618 34.8013V35.0308C70.4154 35.0563 70.3661 35.0754 70.314 35.0881C70.2618 35.1009 70.2032 35.1072 70.1383 35.1072C70.0664 35.1072 69.9992 35.098 69.9366 35.0794C69.874 35.0609 69.82 35.0313 69.7748 34.9908C69.7296 34.9502 69.6943 34.8975 69.6687 34.8326C69.6432 34.7677 69.6305 34.6901 69.6305 34.5997V33.5152H69.38V33.2788H69.6305V32.7365H69.8983V33.2788H70.4688V33.5152H69.8983ZM72.6093 34.1756C72.6093 34.3031 72.5855 34.4242 72.5379 34.5389C72.4904 34.6536 72.4249 34.7538 72.3414 34.8396C72.2579 34.9253 72.1582 34.9931 72.0423 35.0429C71.9263 35.0928 71.8011 35.1177 71.6666 35.1177C71.5321 35.1177 71.4081 35.0928 71.2944 35.0429C71.1808 34.9931 71.0823 34.9259 70.9988 34.8413C70.9153 34.7567 70.8504 34.6577 70.804 34.5441C70.7576 34.4306 70.7344 34.3101 70.7344 34.1826C70.7344 34.0551 70.7576 33.9341 70.804 33.8193C70.8504 33.7046 70.9153 33.6044 70.9988 33.5187C71.0823 33.4329 71.1814 33.3651 71.2962 33.3153C71.411 33.2655 71.5368 33.2406 71.6736 33.2406C71.8081 33.2406 71.9327 33.2655 72.0475 33.3153C72.1623 33.3651 72.2614 33.4323 72.3449 33.5169C72.4284 33.6015 72.4933 33.7006 72.5397 33.8141C72.5861 33.9277 72.6093 34.0482 72.6093 34.1756ZM72.3345 34.1826C72.3345 34.0853 72.3177 33.9937 72.284 33.908C72.2504 33.8222 72.2034 33.7475 72.1432 33.6838C72.0829 33.62 72.0121 33.5696 71.931 33.5326C71.8498 33.4955 71.7617 33.4769 71.6666 33.4769C71.5692 33.4769 71.48 33.4949 71.3988 33.5308C71.3176 33.5667 71.2487 33.6166 71.1918 33.6803C71.135 33.744 71.0904 33.8182 71.0579 33.9028C71.0255 33.9874 71.0092 34.0783 71.0092 34.1756C71.0092 34.273 71.026 34.3645 71.0597 34.4503C71.0933 34.536 71.1397 34.6102 71.1988 34.6727C71.2579 34.7353 71.3281 34.7851 71.4092 34.8222C71.4904 34.8593 71.5785 34.8778 71.6736 34.8778C71.771 34.8778 71.8603 34.8599 71.9414 34.8239C72.0226 34.788 72.0921 34.7388 72.1501 34.6762C72.2081 34.6136 72.2533 34.5401 72.2858 34.4555C72.3182 34.3709 72.3345 34.2799 72.3345 34.1826ZM75.6972 34.7701C75.6067 34.872 75.5041 34.9555 75.3894 35.0203C75.2746 35.0852 75.1325 35.1177 74.9633 35.1177C74.8311 35.1177 74.7088 35.0928 74.5963 35.0429C74.4838 34.9931 74.3864 34.9259 74.3041 34.8413C74.2218 34.7567 74.1575 34.6577 74.1111 34.5441C74.0647 34.4306 74.0415 34.3101 74.0415 34.1826C74.0415 34.0551 74.0647 33.9341 74.1111 33.8193C74.1575 33.7046 74.2218 33.6044 74.3041 33.5187C74.3864 33.4329 74.4838 33.3651 74.5963 33.3153C74.7088 33.2655 74.8311 33.2406 74.9633 33.2406C75.0491 33.2406 75.1267 33.2487 75.1963 33.2649C75.2659 33.2811 75.3296 33.3037 75.3876 33.3327C75.4456 33.3617 75.4989 33.3958 75.5476 33.4352C75.5963 33.4746 75.6415 33.5163 75.6833 33.5604L75.5059 33.7481C75.434 33.6739 75.3557 33.6102 75.2711 33.5569C75.1865 33.5036 75.0827 33.4769 74.9598 33.4769C74.8693 33.4769 74.7847 33.4949 74.7059 33.5308C74.627 33.5667 74.5586 33.6166 74.5006 33.6803C74.4427 33.744 74.3975 33.8182 74.365 33.9028C74.3325 33.9874 74.3163 34.0783 74.3163 34.1756C74.3163 34.273 74.3331 34.3645 74.3667 34.4503C74.4004 34.536 74.4467 34.6107 74.5059 34.6745C74.565 34.7382 74.6346 34.788 74.7146 34.8239C74.7946 34.8599 74.8821 34.8778 74.9772 34.8778C75.0931 34.8778 75.1957 34.8523 75.285 34.8013C75.3743 34.7504 75.4549 34.6866 75.5267 34.6102L75.6972 34.7701ZM77.8064 34.1756C77.8064 34.3031 77.7826 34.4242 77.7351 34.5389C77.6875 34.6536 77.622 34.7538 77.5385 34.8396C77.4551 34.9253 77.3554 34.9931 77.2394 35.0429C77.1235 35.0928 76.9983 35.1177 76.8638 35.1177C76.7293 35.1177 76.6052 35.0928 76.4916 35.0429C76.378 34.9931 76.2794 34.9259 76.1959 34.8413C76.1124 34.7567 76.0475 34.6577 76.0011 34.5441C75.9548 34.4306 75.9316 34.3101 75.9316 34.1826C75.9316 34.0551 75.9548 33.9341 76.0011 33.8193C76.0475 33.7046 76.1124 33.6044 76.1959 33.5187C76.2794 33.4329 76.3785 33.3651 76.4933 33.3153C76.6081 33.2655 76.7339 33.2406 76.8707 33.2406C77.0052 33.2406 77.1298 33.2655 77.2446 33.3153C77.3594 33.3651 77.4585 33.4323 77.542 33.5169C77.6255 33.6015 77.6904 33.7006 77.7368 33.8141C77.7832 33.9277 77.8064 34.0482 77.8064 34.1756ZM77.5316 34.1826C77.5316 34.0853 77.5148 33.9937 77.4812 33.908C77.4475 33.8222 77.4006 33.7475 77.3403 33.6838C77.28 33.62 77.2093 33.5696 77.1281 33.5326C77.0469 33.4955 76.9588 33.4769 76.8638 33.4769C76.7664 33.4769 76.6771 33.4949 76.5959 33.5308C76.5148 33.5667 76.4458 33.6166 76.389 33.6803C76.3322 33.744 76.2875 33.8182 76.2551 33.9028C76.2226 33.9874 76.2064 34.0783 76.2064 34.1756C76.2064 34.273 76.2232 34.3645 76.2568 34.4503C76.2904 34.536 76.3368 34.6102 76.3959 34.6727C76.4551 34.7353 76.5252 34.7851 76.6064 34.8222C76.6875 34.8593 76.7756 34.8778 76.8707 34.8778C76.9681 34.8778 77.0574 34.8599 77.1385 34.8239C77.2197 34.788 77.2893 34.7388 77.3472 34.6762C77.4052 34.6136 77.4504 34.5401 77.4829 34.4555C77.5154 34.3709 77.5316 34.2799 77.5316 34.1826ZM79.7243 33.5986C79.7567 33.5499 79.7932 33.5036 79.8338 33.4596C79.8744 33.4155 79.9202 33.3773 79.9712 33.3449C80.0222 33.3124 80.0796 33.2869 80.1434 33.2684C80.2072 33.2498 80.2785 33.2406 80.3573 33.2406C80.566 33.2406 80.7295 33.3049 80.8478 33.4335C80.966 33.5621 81.0252 33.7388 81.0252 33.9636V35.076H80.7573V34.0262C80.7573 33.8524 80.7162 33.7185 80.6338 33.6247C80.5515 33.5308 80.4373 33.4839 80.2912 33.4839C80.224 33.4839 80.1602 33.4961 80.0999 33.5204C80.0396 33.5447 79.9869 33.5806 79.9417 33.6282C79.8964 33.6757 79.8605 33.7342 79.8338 33.8037C79.8072 33.8732 79.7938 33.952 79.7938 34.0401V35.076H79.5295V34.0192C79.5295 33.85 79.4883 33.7185 79.406 33.6247C79.3237 33.5308 79.2106 33.4839 79.0669 33.4839C78.995 33.4839 78.9289 33.4978 78.8686 33.5256C78.8083 33.5534 78.7556 33.5928 78.7103 33.6438C78.6651 33.6948 78.6298 33.7545 78.6042 33.8228C78.5787 33.8912 78.566 33.9671 78.566 34.0505V35.076H78.2982V33.2788H78.566V33.5812C78.5961 33.5372 78.6292 33.4943 78.6651 33.4526C78.7011 33.4109 78.7422 33.3744 78.7886 33.3431C78.835 33.3118 78.8871 33.2869 78.9451 33.2684C79.0031 33.2498 79.0703 33.2406 79.1469 33.2406C79.293 33.2406 79.4135 33.2747 79.5086 33.3431C79.6037 33.4115 79.6756 33.4966 79.7243 33.5986ZM83.3778 34.1756C83.3778 34.3031 83.3541 34.4242 83.3065 34.5389C83.259 34.6536 83.1935 34.7538 83.11 34.8396C83.0265 34.9253 82.9268 34.9931 82.8109 35.0429C82.6949 35.0928 82.5697 35.1177 82.4352 35.1177C82.3007 35.1177 82.1766 35.0928 82.063 35.0429C81.9494 34.9931 81.8508 34.9259 81.7674 34.8413C81.6839 34.7567 81.619 34.6577 81.5726 34.5441C81.5262 34.4306 81.503 34.3101 81.503 34.1826C81.503 34.0551 81.5262 33.9341 81.5726 33.8193C81.619 33.7046 81.6839 33.6044 81.7674 33.5187C81.8508 33.4329 81.95 33.3651 82.0648 33.3153C82.1795 33.2655 82.3053 33.2406 82.4422 33.2406C82.5767 33.2406 82.7013 33.2655 82.8161 33.3153C82.9309 33.3651 83.03 33.4323 83.1135 33.5169C83.197 33.6015 83.2619 33.7006 83.3083 33.8141C83.3546 33.9277 83.3778 34.0482 83.3778 34.1756ZM83.103 34.1826C83.103 34.0853 83.0862 33.9937 83.0526 33.908C83.019 33.8222 82.972 33.7475 82.9117 33.6838C82.8514 33.62 82.7807 33.5696 82.6996 33.5326C82.6184 33.4955 82.5303 33.4769 82.4352 33.4769C82.3378 33.4769 82.2485 33.4949 82.1674 33.5308C82.0862 33.5667 82.0172 33.6166 81.9604 33.6803C81.9036 33.744 81.859 33.8182 81.8265 33.9028C81.794 33.9874 81.7778 34.0783 81.7778 34.1756C81.7778 34.273 81.7946 34.3645 81.8282 34.4503C81.8619 34.536 81.9082 34.6102 81.9674 34.6727C82.0265 34.7353 82.0966 34.7851 82.1778 34.8222C82.259 34.8593 82.3471 34.8778 82.4422 34.8778C82.5396 34.8778 82.6288 34.8599 82.71 34.8239C82.7911 34.788 82.8607 34.7388 82.9187 34.6762C82.9767 34.6136 83.0219 34.5401 83.0543 34.4555C83.0868 34.3709 83.103 34.2799 83.103 34.1826ZM86.6327 35.6321H86.3649V34.7144C86.3278 34.7677 86.2866 34.8187 86.2414 34.8674C86.1962 34.9161 86.1458 34.9589 86.0901 34.996C86.0344 35.0331 85.9724 35.0621 85.904 35.0829C85.8356 35.1038 85.7597 35.1142 85.6762 35.1142C85.5672 35.1142 85.4617 35.0933 85.3597 35.0516C85.2576 35.0099 85.166 34.9491 85.0849 34.8691C85.0037 34.7892 84.9388 34.6913 84.8901 34.5754C84.8414 34.4595 84.817 34.3274 84.817 34.1791C84.817 34.0308 84.8414 33.8987 84.8901 33.7828C84.9388 33.667 85.0037 33.5691 85.0849 33.4891C85.166 33.4092 85.2576 33.3477 85.3597 33.3049C85.4617 33.262 85.5672 33.2406 85.6762 33.2406C85.7597 33.2406 85.8362 33.251 85.9057 33.2719C85.9753 33.2927 86.0379 33.3205 86.0936 33.3553C86.1492 33.39 86.1997 33.4306 86.2449 33.4769C86.2901 33.5233 86.3301 33.572 86.3649 33.6229V33.2788H86.6327V35.6321ZM86.3753 34.1756C86.3753 34.0714 86.3574 33.9763 86.3214 33.8906C86.2855 33.8049 86.2368 33.7319 86.1753 33.6716C86.1139 33.6114 86.0443 33.5644 85.9666 33.5308C85.8889 33.4972 85.8084 33.4804 85.7249 33.4804C85.6368 33.4804 85.5544 33.4961 85.4779 33.5273C85.4014 33.5586 85.3347 33.6038 85.2779 33.6629C85.2211 33.722 85.1759 33.795 85.1423 33.8819C85.1086 33.9688 85.0918 34.0667 85.0918 34.1756C85.0918 34.2822 85.1086 34.3784 85.1423 34.4642C85.1759 34.5499 85.2217 34.6235 85.2797 34.6849C85.3376 34.7463 85.4049 34.7932 85.4814 34.8257C85.5579 34.8581 85.6391 34.8743 85.7249 34.8743C85.8084 34.8743 85.8889 34.8575 85.9666 34.8239C86.0443 34.7903 86.1139 34.7434 86.1753 34.6832C86.2368 34.6229 86.2855 34.5493 86.3214 34.4624C86.3574 34.3755 86.3753 34.2799 86.3753 34.1756ZM88.5158 34.3077V33.2788H88.7802V35.076H88.5158V34.7631C88.4555 34.8604 88.3767 34.9433 88.2793 35.0116C88.1819 35.08 88.0555 35.1142 87.9002 35.1142C87.7912 35.1142 87.6944 35.0968 87.6097 35.0621C87.5251 35.0273 87.4532 34.978 87.3941 34.9143C87.3349 34.8506 87.2897 34.7747 87.2584 34.6866C87.2271 34.5986 87.2115 34.5012 87.2115 34.3946V33.2788H87.4793V34.3286C87.4793 34.4954 87.5222 34.6275 87.608 34.7249C87.6938 34.8222 87.8167 34.8709 87.9767 34.8709C88.0532 34.8709 88.1245 34.8575 88.1906 34.8309C88.2567 34.8042 88.3135 34.766 88.361 34.7162C88.4086 34.6664 88.4462 34.6067 88.4741 34.5372C88.5019 34.4676 88.5158 34.3912 88.5158 34.3077ZM89.7033 32.886H89.3972V32.5905H89.7033V32.886ZM89.6824 35.076H89.4146V33.2788H89.6824V35.076ZM90.4733 34.2765C90.4826 34.3738 90.5058 34.4601 90.5429 34.5354C90.58 34.6107 90.6275 34.6745 90.6855 34.7266C90.7435 34.7787 90.8084 34.8181 90.8803 34.8448C90.9521 34.8714 91.0275 34.8848 91.1064 34.8848C91.2316 34.8848 91.3388 34.8616 91.4281 34.8152C91.5174 34.7689 91.5991 34.7075 91.6733 34.631L91.8403 34.7805C91.7498 34.8825 91.6467 34.9641 91.5307 35.0256C91.4148 35.087 91.271 35.1177 91.0994 35.1177C90.9765 35.1177 90.8606 35.0951 90.7516 35.0499C90.6426 35.0047 90.5475 34.941 90.4663 34.8587C90.3852 34.7764 90.3208 34.6774 90.2733 34.5615C90.2258 34.4456 90.202 34.3182 90.202 34.1791C90.202 34.0493 90.2234 33.9271 90.2663 33.8124C90.3092 33.6977 90.369 33.598 90.4455 33.5134C90.522 33.4289 90.613 33.3622 90.7185 33.3136C90.824 33.2649 90.9394 33.2406 91.0646 33.2406C91.1968 33.2406 91.315 33.2655 91.4194 33.3153C91.5237 33.3651 91.6119 33.4329 91.6838 33.5187C91.7556 33.6044 91.8101 33.7052 91.8472 33.8211C91.8843 33.9369 91.9029 34.0609 91.9029 34.193V34.2313C91.9029 34.2452 91.9017 34.2602 91.8994 34.2765H90.4733ZM90.4733 34.0783H91.6316C91.6246 33.9972 91.6078 33.9196 91.5811 33.8454C91.5545 33.7713 91.5174 33.7064 91.4698 33.6507C91.4223 33.5951 91.3643 33.5505 91.2959 33.5169C91.2275 33.4833 91.1481 33.4665 91.0577 33.4665C90.9788 33.4665 90.9058 33.4822 90.8385 33.5134C90.7713 33.5447 90.7121 33.5876 90.6611 33.6421C90.6101 33.6965 90.5684 33.7608 90.5359 33.835C90.5034 33.9091 90.4826 33.9902 90.4733 34.0783ZM92.6486 34.3599V35.076H92.3808V33.2788H92.6486V33.7481C92.681 33.6739 92.7216 33.6056 92.7703 33.543C92.819 33.4804 92.8747 33.4265 92.9373 33.3813C92.9999 33.3362 93.0683 33.302 93.1425 33.2788C93.2167 33.2556 93.2967 33.2452 93.3825 33.2475V33.536H93.3616C93.2642 33.536 93.1721 33.5534 93.0851 33.5882C92.9982 33.6229 92.9222 33.6751 92.8573 33.7446C92.7923 33.8141 92.7413 33.9004 92.7042 34.0036C92.6671 34.1067 92.6486 34.2255 92.6486 34.3599ZM94.2743 33.4908C94.1676 33.4908 94.0708 33.503 93.9839 33.5273C93.8969 33.5517 93.8117 33.5835 93.7282 33.6229L93.6482 33.4039C93.7479 33.3576 93.8488 33.3211 93.9508 33.2944C94.0528 33.2678 94.1699 33.2545 94.3021 33.2545C94.5479 33.2545 94.7369 33.3153 94.8691 33.437C95.0013 33.5586 95.0673 33.7388 95.0673 33.9775V35.076H94.8099V34.8048C94.7473 34.8859 94.6633 34.9578 94.5578 35.0203C94.4523 35.0829 94.3195 35.1142 94.1595 35.1142C94.076 35.1142 93.9943 35.1026 93.9143 35.0794C93.8343 35.0563 93.7624 35.0209 93.6986 34.9734C93.6349 34.9259 93.5838 34.8674 93.5456 34.7979C93.5073 34.7283 93.4882 34.6461 93.4882 34.5511C93.4882 34.456 93.5067 34.372 93.5438 34.299C93.5809 34.226 93.6337 34.1652 93.7021 34.1165C93.7705 34.0679 93.8517 34.0308 93.9456 34.0053C94.0395 33.9798 94.1433 33.9671 94.2569 33.9671C94.3728 33.9671 94.4737 33.974 94.5595 33.9879C94.6453 34.0018 94.7288 34.0204 94.8099 34.0436V33.981C94.8099 33.8188 94.763 33.6965 94.6691 33.6142C94.5752 33.532 94.4436 33.4908 94.2743 33.4908ZM94.2847 34.1652C94.1154 34.1652 93.9856 34.1988 93.8952 34.266C93.8047 34.3332 93.7595 34.4248 93.7595 34.5406C93.7595 34.5986 93.7717 34.6496 93.796 34.6936C93.8204 34.7376 93.8534 34.7753 93.8952 34.8066C93.9369 34.8378 93.985 34.8616 94.0395 34.8778C94.094 34.894 94.1514 34.9022 94.2117 34.9022C94.2952 34.9022 94.3734 34.89 94.4465 34.8656C94.5195 34.8413 94.5833 34.8077 94.6378 34.7648C94.6923 34.722 94.7352 34.671 94.7665 34.6119C94.7978 34.5528 94.8134 34.4873 94.8134 34.4155V34.2417C94.7462 34.2231 94.6691 34.2058 94.5821 34.1895C94.4952 34.1733 94.396 34.1652 94.2847 34.1652ZM96.8809 34.5719C96.8809 34.6577 96.8641 34.7336 96.8304 34.7996C96.7968 34.8657 96.7516 34.9218 96.6948 34.9682C96.638 35.0145 96.5707 35.0499 96.493 35.0742C96.4154 35.0985 96.3313 35.1107 96.2409 35.1107C96.111 35.1107 95.98 35.087 95.8478 35.0395C95.7156 34.9919 95.5985 34.9276 95.4965 34.8465L95.6322 34.6553C95.7296 34.7295 95.831 34.7863 95.9365 34.8257C96.042 34.8651 96.1481 34.8848 96.2548 34.8848C96.3638 34.8848 96.453 34.8593 96.5226 34.8083C96.5922 34.7573 96.627 34.6878 96.627 34.5997V34.5928C96.627 34.5487 96.6148 34.5105 96.5904 34.4781C96.5661 34.4456 96.533 34.4172 96.4913 34.3929C96.4496 34.3686 96.4015 34.3471 96.347 34.3286C96.2925 34.3101 96.2362 34.2927 96.1783 34.2765C96.1087 34.2556 96.0385 34.233 95.9678 34.2087C95.8971 34.1843 95.8333 34.1536 95.7765 34.1165C95.7197 34.0795 95.6733 34.0331 95.6374 33.9775C95.6014 33.9219 95.5835 33.8524 95.5835 33.7689V33.762C95.5835 33.6855 95.5985 33.6154 95.6287 33.5517C95.6588 33.488 95.7011 33.4335 95.7556 33.3883C95.8101 33.3431 95.8751 33.3084 95.9504 33.284C96.0258 33.2597 96.1075 33.2475 96.1957 33.2475C96.307 33.2475 96.4194 33.2655 96.533 33.3014C96.6467 33.3373 96.7499 33.3854 96.8426 33.4457L96.7209 33.6473C96.6374 33.594 96.5499 33.5517 96.4583 33.5204C96.3667 33.4891 96.2768 33.4735 96.1887 33.4735C96.082 33.4735 95.9974 33.4984 95.9348 33.5482C95.8722 33.598 95.8409 33.66 95.8409 33.7342V33.7411C95.8409 33.7828 95.8536 33.8193 95.8791 33.8506C95.9046 33.8819 95.9388 33.9091 95.9817 33.9323C96.0246 33.9555 96.0739 33.9763 96.1296 33.9949C96.1852 34.0134 96.2432 34.032 96.3035 34.0505C96.373 34.0714 96.442 34.0945 96.5104 34.12C96.5788 34.1455 96.6409 34.178 96.6965 34.2174C96.7522 34.2568 96.7968 34.3043 96.8304 34.3599C96.8641 34.4155 96.8809 34.4839 96.8809 34.565V34.5719Z"
        fill="currentColor" />
</svg>