<svg width="140" height="42" viewBox="0 0 140 42" fill="none" xmlns="http://www.w3.org/2000/svg">
    <g clip-path="url(#clip0_214_519)">
        <path
            d="M103.6 6.69964H103.844L104.248 7.43044H104.541L104.104 6.68304C104.22 6.66643 104.32 6.62767 104.397 6.5557C104.475 6.48373 104.513 6.373 104.513 6.21798C104.513 6.04636 104.464 5.91902 104.37 5.84151C104.275 5.764 104.131 5.72525 103.943 5.72525H103.351V7.43044H103.606V6.69964H103.6ZM103.6 5.96331H104.026C104.065 5.96331 104.104 5.97992 104.137 5.99653C104.17 6.01314 104.198 6.03528 104.22 6.0685C104.242 6.10172 104.253 6.14048 104.253 6.1903C104.253 6.2512 104.242 6.30103 104.226 6.33425C104.203 6.36746 104.181 6.39515 104.148 6.41729C104.115 6.4339 104.076 6.44497 104.032 6.45051C103.988 6.45051 103.943 6.45605 103.893 6.45605H103.606V5.95778L103.6 5.96331Z"
            fill="currentColor" />
        <path
            d="M102.875 7.64637C102.996 7.78478 103.146 7.88997 103.312 7.96747C103.484 8.04498 103.672 8.08374 103.877 8.08374C104.059 8.08374 104.237 8.04498 104.403 7.97301C104.569 7.90104 104.718 7.79585 104.846 7.66298C104.973 7.5301 105.073 7.36401 105.15 7.17578C105.222 6.98754 105.261 6.77716 105.261 6.54464C105.261 6.31211 105.222 6.10727 105.15 5.91349C105.078 5.72526 104.973 5.56471 104.846 5.4263C104.718 5.29343 104.569 5.18824 104.403 5.11073C104.237 5.03875 104.059 5 103.877 5C103.694 5 103.511 5.03875 103.345 5.11073C103.174 5.1827 103.03 5.28789 102.902 5.4263C102.775 5.55917 102.675 5.72526 102.603 5.91349C102.531 6.10173 102.493 6.31211 102.493 6.54464C102.493 6.77716 102.526 6.9654 102.598 7.15363C102.67 7.34187 102.764 7.50242 102.886 7.64083H102.875V7.64637ZM102.875 6.03529C102.93 5.88028 103.008 5.7474 103.107 5.63114C103.207 5.52042 103.323 5.43183 103.456 5.37093C103.589 5.31003 103.733 5.27682 103.888 5.27682C104.043 5.27682 104.181 5.31003 104.309 5.37093C104.441 5.43183 104.558 5.52042 104.652 5.63114C104.752 5.74187 104.829 5.88028 104.884 6.03529C104.94 6.19031 104.967 6.36194 104.967 6.55017C104.967 6.73841 104.94 6.91003 104.884 7.06505C104.829 7.22007 104.752 7.35294 104.652 7.46367C104.552 7.57439 104.441 7.66298 104.309 7.72388C104.176 7.78478 104.037 7.81799 103.888 7.81799C103.716 7.81799 103.567 7.78477 103.434 7.71834C103.301 7.6519 103.185 7.55779 103.091 7.44706C102.996 7.3308 102.925 7.19792 102.875 7.04291C102.825 6.88789 102.797 6.7218 102.797 6.55017C102.797 6.36194 102.825 6.19031 102.88 6.03529H102.875Z"
            fill="currentColor" />
        <path d="M38.9191 8.0948H44.9149V5.00552H34.8V23.8678H38.9191V15.6297H44.472V12.5682H38.9191V8.0948Z"
            fill="currentColor" />
        <path
            d="M48.7847 5.09412C47.5114 5.09412 46.4927 6.05744 46.4927 7.27543C46.4927 8.49342 47.5114 9.42906 48.7847 9.42906C50.0581 9.42906 51.1044 8.49342 51.1044 7.27543C51.1044 6.05744 50.0636 5.09412 48.7847 5.09412Z"
            fill="currentColor" />
        <path d="M50.5067 10.6028H46.6257V24.0007H50.5067V10.6028Z" fill="currentColor" />
        <path
            d="M71.7329 13.4207L72.0208 10.4754H67.9571L68.1121 7.75708H67.0713L63.9875 10.4754H57.5156L57.6706 7.75708H56.6298L51.6526 12.1474V13.4207H53.6567V20.7287C53.6567 23.7017 55.5059 24.4934 57.5654 24.4934C59.337 24.4934 61.1862 23.2477 61.1862 23.2477L61.5792 19.71L61.5017 19.6823C61.5017 19.6823 59.6803 21.0996 58.5287 21.0996C57.9308 21.0996 57.4879 20.7619 57.4879 19.9093V13.4263H64.0983V20.7342C64.0983 23.7073 65.9474 24.4989 68.0069 24.4989C69.7785 24.4989 71.6277 23.2533 71.6277 23.2533L72.0208 19.7156L71.9432 19.6879C71.9432 19.6879 70.1218 21.1052 68.9702 21.1052C68.3723 21.1052 67.9294 20.7675 67.9294 19.9149V13.4318H71.7329V13.4207Z"
            fill="currentColor" />
        <path
            d="M85.5183 19.7045L85.4408 19.6768C85.4408 19.6768 82.7059 21.2602 80.2533 21.2602C77.8007 21.2602 76.7377 19.7876 76.6048 18.2318L85.9059 18.2152V16.8422C85.9059 12.9613 83.1931 10.0713 79.6277 10.0713C75.5917 10.0713 72.7239 12.5903 72.7239 17.2353C72.7239 21.8803 75.5917 24.4879 79.6554 24.4879C82.5232 24.4879 84.3446 23.2422 84.3446 23.2422L85.5183 19.7045ZM79.7993 13.0388C81.4657 13.0388 82.6339 14.1516 82.6339 15.4858L76.71 15.5412C76.7875 14.1516 78.2602 13.0443 79.7993 13.0443V13.0388Z"
            fill="currentColor" />
        <path
            d="M91.2873 12.1751L91.2098 12.1474V10.4754H87.6665V23.8733H91.5475V16.6817C91.5475 15.0097 92.306 14.2678 93.1862 13.6588C94.0056 13.0886 95.0686 13.0886 95.0686 13.0886V9.97162C92.3613 9.97162 91.2928 12.1806 91.2928 12.1806H91.2873V12.1751Z"
            fill="currentColor" />
        <path
            d="M99.6029 14.0962C99.6029 13.4429 100.046 13.1052 100.876 13.1052C102.62 13.1052 104.475 14.4062 104.475 14.4062L104.425 11.3004C104.425 11.3004 102.703 10.099 100.278 10.099C97.488 10.099 95.9268 11.7433 95.9268 14.2346C95.9268 19.1619 101.579 18.3426 101.579 20.3799C101.579 21.1716 101.004 21.4872 100.278 21.4872C98.5288 21.4872 96.0541 19.9592 96.0541 19.9592V23.2422C96.0541 23.2422 97.8534 24.4879 100.433 24.4879C103.351 24.4879 105.305 22.7052 105.305 20.1253C105.305 15.1702 99.5973 15.9896 99.5973 14.0907L99.6029 14.0962Z"
            fill="currentColor" />
        <path
            d="M37.3135 31.1149C35.9571 31.1149 34.6948 32.1557 34.6948 33.9661C34.6948 35.7765 35.9571 36.8173 37.3135 36.8173C38.6699 36.8173 39.9322 35.782 39.9322 33.9661C39.9322 32.1502 38.6699 31.1149 37.3135 31.1149ZM37.3135 36.1972C36.2893 36.1972 35.4201 35.3723 35.4201 33.9661C35.4201 32.5599 36.2948 31.7349 37.3135 31.7349C38.3322 31.7349 39.2069 32.5599 39.2069 33.9661C39.2069 35.3723 38.3322 36.1972 37.3135 36.1972Z"
            fill="currentColor" />
        <path
            d="M46.9466 34.1211C47.5944 33.9827 48.1425 33.4069 48.1425 32.5986C48.1425 31.5744 47.3951 31.2422 46.5591 31.2422C46.0221 31.2422 45.2747 31.2699 45.2747 31.2699V36.6678H45.9446V34.2761C46.4041 34.2927 46.703 34.5418 47.2954 35.4775L48.0484 36.6678H48.8567L47.7051 34.8851C47.301 34.2595 46.9798 34.1377 46.9466 34.1211ZM46.083 33.7335H45.9501V31.8124C45.9501 31.8124 46.1937 31.8124 46.4428 31.8124C47.0574 31.8124 47.456 32.0173 47.456 32.665C47.456 33.5065 46.703 33.7446 46.083 33.7446V33.7335Z"
            fill="currentColor" />
        <path d="M54.4927 31.2699H53.7896V36.6678H54.4927V31.2699Z" fill="currentColor" />
        <path
            d="M63.7827 35.7598C63.7827 35.7598 63.0962 36.1972 62.4208 36.1972C61.3246 36.1972 60.5273 35.328 60.5273 33.9661C60.5273 32.6041 61.3246 31.7349 62.4318 31.7349C63.3619 31.7349 64.1924 32.4491 64.1924 32.4491V31.674C64.1924 31.674 63.4228 31.1204 62.4318 31.1204C60.9924 31.1204 59.8076 32.1501 59.8076 33.9661C59.8076 35.782 60.9924 36.8173 62.4263 36.8173C63.7107 36.8173 64.4803 36.0533 64.4803 36.0533V34.1654H63.7938V35.7543H63.7827V35.7598Z"
            fill="currentColor" />
        <path d="M70.6423 31.2699H69.9392V36.6678H70.6423V31.2699Z" fill="currentColor" />
        <path
            d="M79.6886 35.3557C79.672 35.3225 79.4284 34.8851 76.2727 30.9488H76.2007V36.6733H76.8484C76.8484 33.1522 76.8152 32.6595 76.8152 32.654C76.8318 32.6872 77.092 33.1356 80.2311 37H80.3086V31.2754H79.6664C79.6664 34.9294 79.6941 35.3557 79.6941 35.3612H79.6886V35.3557Z"
            fill="currentColor" />
        <path
            d="M87.5281 30.9432L85.3025 36.6678H86.0111L86.5758 35.1508H88.4471L88.9786 36.6678H89.7482L87.5835 30.9432H87.5226H87.5281ZM88.2534 34.5751H86.7918L86.8637 34.3868C87.4838 32.7093 87.5281 32.4325 87.5336 32.427C87.5392 32.4491 87.6167 32.7702 88.1814 34.3868L88.2478 34.5751H88.2534Z"
            fill="currentColor" />
        <path d="M95.4172 31.2699H94.7141V36.6678H97.2774V36.0533H95.4172V31.2699Z" fill="currentColor" />
        <path
            d="M103.921 33.6782C103.412 33.4567 102.891 33.2131 102.891 32.5488C102.891 32.056 103.152 31.746 103.716 31.746C104.375 31.746 104.968 32.1668 104.968 32.1668V31.519C104.968 31.519 104.414 31.1425 103.716 31.1425C102.764 31.1425 102.227 31.7571 102.227 32.5931C102.227 33.6782 102.914 33.9827 103.556 34.254C104.071 34.481 104.563 34.6969 104.563 35.3668C104.563 35.8706 104.292 36.1861 103.716 36.1861C102.919 36.1861 102.233 35.5605 102.233 35.5605V36.2803C102.233 36.2803 102.858 36.7896 103.716 36.7896C104.774 36.7896 105.244 36.1972 105.244 35.3059C105.244 34.265 104.541 33.9439 103.916 33.6671V33.6782H103.921Z"
            fill="currentColor" />
    </g>
    <defs>
        <clipPath id="clip0_214_519">
            <rect width="70.6104" height="32" fill="white" transform="translate(34.6948 5)" />
        </clipPath>
    </defs>
</svg>