<svg width="140" height="42" viewBox="0 0 140 42" fill="none" xmlns="http://www.w3.org/2000/svg">
    <path fill-rule="evenodd" clip-rule="evenodd"
        d="M25.1535 23.4864C25.1535 26.1041 23.112 28.755 19.2116 28.755C16.971 28.755 14.5975 27.3136 13.2199 25.8556C13.1867 25.3586 13.1867 21.0675 13.2199 20.5207C14.4481 19.2615 16.2407 17.8533 19.2614 17.8533C22.1162 17.8533 25.1535 19.3278 25.1535 23.4864ZM19.4108 15.2355C16.4896 15.2355 14.8465 16.1633 13.2365 17.3396V11.0604C13.2365 10.4805 12.7552 10 12.1743 10H10.2822V27.8272L10 30.9254H11.3112H11.7427C12.5228 30.9254 12.7054 30.3953 12.805 29.9148L13.0539 28.9704C14.8299 30.3953 16.4232 31.3728 19.6929 31.3728C25.8838 31.3728 28.1245 26.6178 28.1245 23.4367C28.1079 20.3716 26.2822 15.2355 19.4108 15.2355Z"
        fill="currentColor" />
    <path fill-rule="evenodd" clip-rule="evenodd"
        d="M32.6887 21.4485C33.419 19.0627 35.2779 17.8035 38.0497 17.8035C42.0829 17.8035 43.2447 20.355 43.5601 21.4485H32.6887ZM37.8505 15.1858C33.0372 15.1858 29.5352 18.5491 29.5352 23.1882C29.5352 27.9101 33.1534 31.3231 38.1327 31.3231C42.9459 31.3231 44.5891 29.5669 46.0331 28.026L46.5808 27.4461L44.2074 25.7396L43.9252 26.1041C43.0455 27.1976 41.8339 28.7053 38.3484 28.7053C34.8132 28.7053 32.9045 26.4024 32.5393 24.0663H46.7966L46.8132 23.4864C46.8132 21.0674 46.0995 19.1124 44.6721 17.671C43.0953 16.0639 40.6721 15.1858 37.8505 15.1858Z"
        fill="currentColor" />
    <path fill-rule="evenodd" clip-rule="evenodd"
        d="M55.7593 28.7882C53.5519 28.7882 53.1203 28.0426 53.1203 26.7669V18.3172H58.9129V16.7598C58.9129 16.1799 58.4316 15.6994 57.8506 15.6994H53.1037V11.9219C53.1037 11.342 52.6224 10.8781 52.0415 10.8781H50.1494V15.716H47.0623V18.3337H50.166V26.9988C50.166 28.2083 50.166 31.4059 55.278 31.4059C56.2241 31.4059 57.3693 31.2402 59.0125 30.9917L59.3112 30.942V28.2746L58.6971 28.3905C57.5685 28.6225 56.7552 28.7882 55.7593 28.7882Z"
        fill="currentColor" />
    <path fill-rule="evenodd" clip-rule="evenodd"
        d="M69.0207 21.7302C66.5476 21.432 64.4065 21.1835 64.4065 19.8414C64.4065 18.0852 66.8132 17.8201 68.2406 17.8201C70.7136 17.8201 72.6057 18.6485 73.9003 20.3054L74.1327 20.6036L76.1742 18.748L75.9916 18.4994C75.4107 17.6876 73.6514 15.2024 68.2738 15.2024C64.9875 15.2024 61.4688 16.4616 61.4688 19.974C61.4688 23.5693 65.3028 24.0332 68.6887 24.4474C71.3111 24.7622 73.585 25.0438 73.585 26.6012C73.585 28.1752 71.3111 28.7219 69.3692 28.7219C66.7136 28.7219 64.5891 27.7444 63.0456 25.7894L62.8132 25.4911L60.6223 27.4959L60.8381 27.761C62.9294 30.1965 65.585 31.3397 69.1866 31.3397C73.8671 31.3397 76.5559 29.5503 76.5559 26.4355C76.5393 22.6249 72.5393 22.1444 69.0207 21.7302Z"
        fill="currentColor" />
    <path fill-rule="evenodd" clip-rule="evenodd"
        d="M86.3485 21.7302C83.8755 21.432 81.7344 21.1835 81.7344 19.8414C81.7344 18.0852 84.1411 17.8201 85.5685 17.8201C88.0415 17.8201 89.9336 18.6485 91.2282 20.3054L91.4606 20.6036L93.5021 18.748L93.3195 18.4994C92.7386 17.6876 90.9792 15.2024 85.6016 15.2024C82.3153 15.2024 78.7967 16.4616 78.7967 19.974C78.7967 23.5693 82.6307 24.0332 86.0166 24.4474C88.639 24.7622 90.9128 25.0438 90.9128 26.6012C90.9128 28.1752 88.639 28.7219 86.6971 28.7219C84.0415 28.7219 81.917 27.7444 80.3734 25.7894L80.1411 25.4911L77.9502 27.4959L78.166 27.761C80.2572 30.1965 82.9129 31.3397 86.5145 31.3397C91.195 31.3397 93.8838 29.5503 93.8838 26.4355C93.8506 22.6249 89.8672 22.1444 86.3485 21.7302Z"
        fill="currentColor" />
    <path fill-rule="evenodd" clip-rule="evenodd"
        d="M109.834 23.3041C109.834 26.6509 107.627 28.7385 104.058 28.7385C100.523 28.7385 98.249 26.6012 98.249 23.3041C98.249 20.6698 100.075 17.8367 104.058 17.8367C108.042 17.8367 109.834 20.5704 109.834 23.3041ZM104.058 15.2189C98.9793 15.2189 95.2947 18.4994 95.2947 23.0225C95.2947 28.1586 98.6474 31.3562 104.058 31.3562C109.452 31.3562 112.788 28.1586 112.788 23.0225C112.788 18.4994 109.12 15.2189 104.058 15.2189Z"
        fill="currentColor" />
    <path fill-rule="evenodd" clip-rule="evenodd"
        d="M123.61 15.2189C121.585 15.2189 119.693 15.9314 117.834 17.3893V16.7101C117.834 16.1302 117.353 15.6497 116.772 15.6497H114.88V30.8923H117.834V20.5373C118.83 19.4935 120.838 17.8201 123.344 17.8201C124.622 17.8201 125.568 18.1349 126.183 18.7645C126.763 19.3609 127.046 20.2391 127.029 21.3988V30.9089H129.983V20.968C129.967 15.9645 125.983 15.2189 123.61 15.2189Z"
        fill="currentColor" />
</svg>