<svg width="140" height="42" viewBox="0 0 140 42" fill="none" xmlns="http://www.w3.org/2000/svg">
    <path
        d="M82.0422 19.1497C81.7982 18.0974 80.8171 17.0655 79.6581 17.2282C78.8092 17.3451 78.4991 18.0262 78.1077 18.6769C77.4926 19.6987 76.6031 19.9884 75.4796 20.0952C74.9306 20.146 74.7375 19.8918 74.7019 19.353C74.6358 18.3211 74.5138 17.1722 74.8544 16.1708C75.1797 15.205 76.0134 14.4577 76.9538 14.1782C78.1941 13.8122 79.3633 13.8071 79.5158 12.3278C79.9123 8.52041 75.4796 10.3097 74.8696 10.5944C71.0978 12.5159 71.2249 14.656 70.5793 15.3321C69.9896 15.9472 68.2664 16.7351 67.3768 16.7503C65.5366 16.7707 66.472 13.07 66.7566 12.0737C67.1175 10.8079 67.8038 8.71357 71.2605 9.00332C72.5059 9.07449 73.8479 8.28657 73.8733 7.25974C73.9089 5.96349 71.8552 5.27724 71.1334 5.12982C68.6019 4.6164 66.4618 5.7754 66.0602 6.01432C63.1983 7.69691 62.4104 10.7317 62.1511 11.728C61.6225 13.7562 61.8004 15.6066 62.1308 16.9892C60.9921 17.1875 59.8179 17.5687 58.8825 18.3719C57.5304 19.5309 57.754 21.5033 58.4352 22.4843C59.34 23.7806 60.6973 23.3688 61.3937 22.2098C61.6784 21.732 62.4866 20.8068 63.1475 20.9136C63.9862 21.0508 64.2861 23.2672 64.3878 23.9331C64.703 25.9715 64.3878 28.747 63.3254 30.5516C62.7001 31.6191 61.6784 32.5087 60.8345 33.4033C60.1686 34.1099 59.1977 35.0097 59.8433 36.0518C60.0822 36.4279 61.0023 37.0786 62.1257 36.9922C63.9913 36.8549 65.1045 35.4977 65.7654 34.8775C66.8278 33.8761 67.7072 32.6663 68.2969 31.3293C68.3528 31.1972 69.6846 28.0913 68.5256 22.5708C68.4443 22.1844 67.9563 21.1068 68.1952 20.8272C68.3121 20.6899 69.9439 20.3341 70.6149 20.1867C70.6657 20.1765 70.8131 20.2731 70.8436 20.329C73.7615 26.1342 71.2452 31.9393 70.9606 32.956C70.9402 33.0323 70.9606 33.1644 70.9758 33.2C71.3723 34.0591 72.9481 34.5725 74.0004 34.359C74.1021 34.3387 74.2851 34.3336 74.5494 34.1455C75.2916 33.4593 77.1419 30.2059 76.0642 23.9687C76.7962 23.9077 77.5181 23.7806 78.2145 23.5773C80.0343 23.0537 82.5556 21.4067 82.0371 19.1649L82.0422 19.1497Z"
        fill="currentColor" />
</svg>