<svg width="140" height="42" viewBox="0 0 140 42" fill="none" xmlns="http://www.w3.org/2000/svg">
    <g clip-path="url(#clip0_214_518)">
        <path
            d="M44.2124 34.797V16.657C44.2124 16.1031 44.6656 15.6499 45.2195 15.6499H49.6381C50.1919 15.6499 50.6451 16.1031 50.6451 16.657V34.797C50.6451 35.3509 50.1919 35.8041 49.6381 35.8041H45.2195C44.6656 35.8041 44.2124 35.3509 44.2124 34.797Z"
            fill="currentColor" />
        <path
            d="M66.7583 23.9961L74.0722 35.1998C74.2484 35.4642 74.0596 35.8041 73.7449 35.8041H67.4129C67.2744 35.8041 67.1485 35.7285 67.073 35.6153L61.106 25.4563H61.0305V35.4138C61.0305 35.6278 60.8543 35.8041 60.6403 35.8041H54.9754C54.7614 35.8041 54.5852 35.6278 54.5852 35.4138V7.11487C54.5852 5.94414 55.5293 5 56.6875 5H60.6151C60.8291 5 61.0053 5.17624 61.0053 5.39024V22.07H61.0809L66.9471 14.4414C67.0226 14.3407 67.1359 14.2903 67.2618 14.2903H73.8456C74.1855 14.2903 74.3617 14.6806 74.1477 14.9449L66.796 23.5303C66.6828 23.6562 66.6702 23.845 66.7583 23.9961Z"
            fill="currentColor" />
        <path
            d="M94.7929 27.0047H79.6364C79.3342 27.0047 79.1077 27.2943 79.1832 27.5838C79.7874 29.7868 81.7764 31.0708 84.1053 31.0708C85.767 31.0708 86.8748 30.4288 87.8818 29.2203C87.97 29.1196 88.0958 29.0441 88.2469 29.0441H93.8866C94.239 29.0441 94.4656 29.4091 94.302 29.7238C92.4263 33.5256 88.9645 36.2825 84.6214 36.4839C78.516 36.7608 73.2036 32.0653 72.7379 25.9851C72.2469 19.3635 77.3704 13.5476 83.992 13.5476C90.5884 13.5476 95.3468 18.8222 95.3468 25.2927C95.3468 25.7333 95.3216 26.1613 95.2587 26.5893C95.2209 26.8285 95.0321 27.0047 94.7929 27.0047ZM84.0298 18.9733C81.9275 18.9733 80.0392 20.081 79.3342 22.0197C79.221 22.3218 79.4475 22.6491 79.7748 22.6491H88.2973C88.6246 22.6491 88.8512 22.3218 88.7379 22.0197C88.0077 20.081 86.132 18.9733 84.0298 18.9733Z"
            fill="currentColor" />
        <path
            d="M93.5971 15.3855C94.8182 14.8442 95.3721 13.4091 94.8182 12.188C94.2391 10.9166 92.7034 10.3879 91.4697 11.0551L89.6318 12.0496C88.952 12.4146 88.9646 13.3965 89.6443 13.7364C90.5633 14.1896 91.4193 14.7561 92.1872 15.4233C92.4642 15.6625 92.8544 15.7128 93.1817 15.5618L93.5971 15.3855Z"
            fill="currentColor" />
        <path
            d="M47.4224 5C45.2824 5 43.5452 6.73722 43.5452 8.87726C43.5452 10.9166 45.1061 12.5783 47.0951 12.7545V14.4917C47.0951 14.6176 47.1707 14.7435 47.2965 14.7939C47.3343 14.819 47.3847 14.819 47.435 14.819C47.5105 14.819 47.5987 14.7939 47.649 14.7309C47.7749 14.6176 50.6325 12.0244 51.1738 9.87176C51.1864 9.83399 51.199 9.79623 51.199 9.74587V9.73328V9.72069C51.2619 9.44375 51.2871 9.15421 51.2871 8.87726C51.3123 6.73722 49.5625 5 47.4224 5Z"
            fill="currentColor" />
        <path
            d="M96.2408 34.8725C96.1653 34.6963 96.052 34.5452 95.9009 34.4068C95.7624 34.2809 95.5862 34.1802 95.3974 34.1046C95.2085 34.0291 94.9945 33.9913 94.7679 33.9913C94.5413 33.9913 94.3273 34.0291 94.1385 34.1046C93.9497 34.1802 93.7734 34.2809 93.635 34.4068C93.4965 34.5326 93.3832 34.6963 93.2951 34.8725C93.207 35.0488 93.1692 35.2376 93.1692 35.4516C93.1692 35.653 93.207 35.8544 93.2951 36.0307C93.3706 36.2069 93.4839 36.358 93.635 36.4964C93.7734 36.6223 93.9497 36.723 94.1385 36.7986C94.3273 36.8741 94.5413 36.9119 94.7679 36.9119C94.9945 36.9119 95.2085 36.8741 95.3974 36.7986C95.5862 36.723 95.7624 36.6223 95.9009 36.4964C96.0394 36.3706 96.1527 36.2069 96.2408 36.0307C96.3163 35.8544 96.3667 35.6656 96.3667 35.4516C96.3541 35.2502 96.3163 35.0488 96.2408 34.8725ZM96.0016 35.9426C95.9387 36.0936 95.838 36.2195 95.7121 36.3328C95.5988 36.4461 95.4477 36.5342 95.2841 36.5972C95.1204 36.6601 94.9442 36.6853 94.7553 36.6853C94.5665 36.6853 94.3903 36.6601 94.2266 36.5972C94.063 36.5342 93.9245 36.4461 93.7986 36.3328C93.6727 36.2195 93.5846 36.0936 93.5217 35.9426C93.4587 35.7915 93.421 35.6278 93.421 35.4642C93.421 35.2879 93.4587 35.1369 93.5217 34.9858C93.5846 34.8348 93.6853 34.7089 93.7986 34.5956C93.9245 34.4823 94.063 34.3942 94.2266 34.3312C94.3903 34.2683 94.5665 34.2431 94.7553 34.2431C94.9442 34.2431 95.1204 34.2683 95.2841 34.3312C95.4477 34.3942 95.5862 34.4823 95.7121 34.5956C95.838 34.7089 95.9261 34.8348 96.0016 34.9858C96.0645 35.1369 96.1023 35.3005 96.1023 35.4642C96.1023 35.6278 96.0645 35.7915 96.0016 35.9426Z"
            fill="currentColor" />
        <path
            d="M95.4854 35.1117C95.4854 35.0236 95.4728 34.9607 95.435 34.8977C95.4098 34.8348 95.3595 34.7844 95.3091 34.7467C95.2588 34.7089 95.1958 34.6837 95.1329 34.6585C95.0574 34.646 94.9944 34.6334 94.9189 34.6334H94.1636V36.2195H94.4531V35.6027H94.7804L95.1203 36.2195H95.4602L95.1077 35.5775C95.221 35.5523 95.3091 35.4894 95.3721 35.4139C95.4602 35.3383 95.4854 35.2376 95.4854 35.1117ZM95.1203 35.288C95.0699 35.3257 95.007 35.3383 94.9189 35.3383H94.4657V34.8851H94.9189C94.9944 34.8851 95.0699 34.9103 95.1203 34.9355C95.1707 34.9733 95.1958 35.0362 95.1958 35.0991C95.1958 35.1998 95.1707 35.2502 95.1203 35.288Z"
            fill="currentColor" />
    </g>
    <defs>
        <clipPath id="clip0_214_518">
            <rect width="52.9095" height="32" fill="white" transform="translate(43.5452 5)" />
        </clipPath>
    </defs>
</svg>